/* XPM */
static char *east[] = {
/* width height num_colors chars_per_pixel */
"64 64 4 1",
/* colors */
". c #74C0FC",
"X c #339AF0",
"o c #1971C2",
"O c #0C4A8C",
/* pixels */
"XXXXXXXXXXXXXXXXXXXXXXXXXXXXXXXXXXXXXXXXXXXXXXXXXXXXXXXXXXXXXXXX",
"X..............................................................X",
"X..............................................................X",
"X..............................................................X",
"X..............................................................X",
"X..............................................................X",
"X..............................................................X",
"X..............................................................X",
"XXXXXXXXXXXXXXXXXXXXXXXXXXXXXXXXXXXXXXXXXXXXXXXXXXXXXXXXXXXXXXXX",
"X..............................................................X",
"X..............................................................X",
"X..............................................................X",
"X..............................................................X",
"X..............................................................X",
"X..............................................................X",
"X..............................................................X",
"XXXXXXXXXXXXXXXXXXXXXXXXXXXXXXXXXXXXXXXXXXXXXXXXXXXXXXXXXXXXXXXX",
"X..............................................................X",
"X..............................................................X",
"X..............................................................X",
"X..............................................................X",
"X..............................................................X",
"X..............................................................X",
"X..............................................................X",
"XXXXXXXXXXXXXXXXXXXXXXXXXXXXXXXXXXXXXXXXXXXXXXXXXXXXXXXXXXXXXXXX",
"X..............................................................X",
"X..............................................................X",
"X..............................................................X",
"X..............................................................X",
"X..............................................................X",
"X..............................................................X",
"X..............................................................X",
"XXXXXXXXXXXXXXXXXXXXXXXXXXXXXXXXXXXXXXXXXXXXXXXXXXXXXXXXXXXXXXXX",
"X..............................................................X",
"X..............................................................X",
"X..............................................................X",
"X..............................................................X",
"X..............................................................X",
"X..............................................................X",
"X..............................................................X",
"XXXXXXXXXXXXXXXXXXXXXXXXXXXXXXXXXXXXXXXXXXXXXXXXXXXXXXXXXXXXXXXX",
"X..............................................................X",
"X..............................................................X",
"X..............................................................X",
"X..............................................................X",
"X..............................................................X",
"X..............................................................X",
"X..............................................................X",
"XXXXXXXXXXXXXXXXXXXXXXXXXXXXXXXXXXXXXXXXXXXXXXXXXXXXXXXXXXXXXXXX",
"X..............................................................X",
"X..............................................................X",
"X..............................................................X",
"X..............................................................X",
"X..............................................................X",
"X..............................................................X",
"X..............................................................X",
"XXXXXXXXXXXXXXXXXXXXXXXXXXXXXXXXXXXXXXXXXXXXXXXXXXXXXXXXXXXXXXXX",
"X..............................................................X",
"X..............................................................X",
"X..............................................................X",
"X..............................................................X",
"X..............................................................X",
"X..............................................................X",
"X..............................................................X"
};
