/* XPM */
static char *north[] = {
/* width height num_colors chars_per_pixel */
"64 64 4 1",
/* colors */
". c #FF6B6B",
"X c #C92A2A",
"o c #A61C1C",
"O c #8B1010",
/* pixels */
"XXXXXXXXXXXXXXXXXXXXXXXXXXXXXXXXXXXXXXXXXXXXXXXXXXXXXXXXXXXXXXXX",
"X..............................................................X",
"X..............................................................X",
"X..............................................................X",
"X..............................................................X",
"X..............................................................X",
"X..............................................................X",
"X..............................................................X",
"XXXXXXXXXXXXXXXXXXXXXXXXXXXXXXXXXXXXXXXXXXXXXXXXXXXXXXXXXXXXXXXX",
"X..............................................................X",
"X..............................................................X",
"X..............................................................X",
"X..............................................................X",
"X..............................................................X",
"X..............................................................X",
"X..............................................................X",
"XXXXXXXXXXXXXXXXXXXXXXXXXXXXXXXXXXXXXXXXXXXXXXXXXXXXXXXXXXXXXXXX",
"X..............................................................X",
"X..............................................................X",
"X..............................................................X",
"X..............................................................X",
"X..............................................................X",
"X..............................................................X",
"X..............................................................X",
"XXXXXXXXXXXXXXXXXXXXXXXXXXXXXXXXXXXXXXXXXXXXXXXXXXXXXXXXXXXXXXXX",
"X..............................................................X",
"X..............................................................X",
"X..............................................................X",
"X..............................................................X",
"X..............................................................X",
"X..............................................................X",
"X..............................................................X",
"XXXXXXXXXXXXXXXXXXXXXXXXXXXXXXXXXXXXXXXXXXXXXXXXXXXXXXXXXXXXXXXX",
"X..............................................................X",
"X..............................................................X",
"X..............................................................X",
"X..............................................................X",
"X..............................................................X",
"X..............................................................X",
"X..............................................................X",
"XXXXXXXXXXXXXXXXXXXXXXXXXXXXXXXXXXXXXXXXXXXXXXXXXXXXXXXXXXXXXXXX",
"X..............................................................X",
"X..............................................................X",
"X..............................................................X",
"X..............................................................X",
"X..............................................................X",
"X..............................................................X",
"X..............................................................X",
"XXXXXXXXXXXXXXXXXXXXXXXXXXXXXXXXXXXXXXXXXXXXXXXXXXXXXXXXXXXXXXXX",
"X..............................................................X",
"X..............................................................X",
"X..............................................................X",
"X..............................................................X",
"X..............................................................X",
"X..............................................................X",
"X..............................................................X",
"XXXXXXXXXXXXXXXXXXXXXXXXXXXXXXXXXXXXXXXXXXXXXXXXXXXXXXXXXXXXXXXX",
"X..............................................................X",
"X..............................................................X",
"X..............................................................X",
"X..............................................................X",
"X..............................................................X",
"X..............................................................X",
"X..............................................................X"
};
