/* XPM */
static char *west[] = {
/* width height num_colors chars_per_pixel */
"64 64 4 1",
/* colors */
". c #FFD43B",
"X c #FCC419",
"o c #E09400",
"O c #B87400",
/* pixels */
"XXXXXXXXXXXXXXXXXXXXXXXXXXXXXXXXXXXXXXXXXXXXXXXXXXXXXXXXXXXXXXXX",
"X..............................................................X",
"X..............................................................X",
"X..............................................................X",
"X..............................................................X",
"X..............................................................X",
"X..............................................................X",
"X..............................................................X",
"XXXXXXXXXXXXXXXXXXXXXXXXXXXXXXXXXXXXXXXXXXXXXXXXXXXXXXXXXXXXXXXX",
"X..............................................................X",
"X..............................................................X",
"X..............................................................X",
"X..............................................................X",
"X..............................................................X",
"X..............................................................X",
"X..............................................................X",
"XXXXXXXXXXXXXXXXXXXXXXXXXXXXXXXXXXXXXXXXXXXXXXXXXXXXXXXXXXXXXXXX",
"X..............................................................X",
"X..............................................................X",
"X..............................................................X",
"X..............................................................X",
"X..............................................................X",
"X..............................................................X",
"X..............................................................X",
"XXXXXXXXXXXXXXXXXXXXXXXXXXXXXXXXXXXXXXXXXXXXXXXXXXXXXXXXXXXXXXXX",
"X..............................................................X",
"X..............................................................X",
"X..............................................................X",
"X..............................................................X",
"X..............................................................X",
"X..............................................................X",
"X..............................................................X",
"XXXXXXXXXXXXXXXXXXXXXXXXXXXXXXXXXXXXXXXXXXXXXXXXXXXXXXXXXXXXXXXX",
"X..............................................................X",
"X..............................................................X",
"X..............................................................X",
"X..............................................................X",
"X..............................................................X",
"X..............................................................X",
"X..............................................................X",
"XXXXXXXXXXXXXXXXXXXXXXXXXXXXXXXXXXXXXXXXXXXXXXXXXXXXXXXXXXXXXXXX",
"X..............................................................X",
"X..............................................................X",
"X..............................................................X",
"X..............................................................X",
"X..............................................................X",
"X..............................................................X",
"X..............................................................X",
"XXXXXXXXXXXXXXXXXXXXXXXXXXXXXXXXXXXXXXXXXXXXXXXXXXXXXXXXXXXXXXXX",
"X..............................................................X",
"X..............................................................X",
"X..............................................................X",
"X..............................................................X",
"X..............................................................X",
"X..............................................................X",
"X..............................................................X",
"XXXXXXXXXXXXXXXXXXXXXXXXXXXXXXXXXXXXXXXXXXXXXXXXXXXXXXXXXXXXXXXX",
"X..............................................................X",
"X..............................................................X",
"X..............................................................X",
"X..............................................................X",
"X..............................................................X",
"X..............................................................X",
"X..............................................................X"
};
